PathFileType	4	(X/Y/Z)	AB11\squats_1.trc
DataRate	CameraRate	NumFrames	NumMarkers	Units	OrigDataRate	OrigDataStartFrame	OrigNumFrames
200.000000	200.000000	4	35	mm	200.000000	39	317
Frame#	Time	C7			LSHO			STRN			LASI			RASI			LPSI			RPSI			LGTR			RGTR			LTHC			LTHL			LTHR			LKNE			LMKNE			LSHC			LSHL			LSHR			LANK			LMANK			LMT1			LMT5			LCAL			RTHC			RTHL			RTHR			RKNE			RMKNE			RSHC			RSHL			RSHR			RANK			RMANK			RMT1			RMT5			RCAL			
		X1	Y1	Z1	X2	Y2	Z2	X3	Y3	Z3	X4	Y4	Z4	X5	Y5	Z5	X6	Y6	Z6	X7	Y7	Z7	X8	Y8	Z8	X9	Y9	Z9	X10	Y10	Z10	X11	Y11	Z11	X12	Y12	Z12	X13	Y13	Z13	X14	Y14	Z14	X15	Y15	Z15	X16	Y16	Z16	X17	Y17	Z17	X18	Y18	Z18	X19	Y19	Z19	X20	Y20	Z20	X21	Y21	Z21	X22	Y22	Z22	X23	Y23	Z23	X24	Y24	Z24	X25	Y25	Z25	X26	Y26	Z26	X27	Y27	Z27	X28	Y28	Z28	X29	Y29	Z29	X30	Y30	Z30	X31	Y31	Z31	X32	Y32	Z32	X33	Y33	Z33	X34	Y34	Z34	X35	Y35	Z35	

40	21.85	-2272.13569409732	1266.517171336729	2493.985715364253	-2200.048423655756	1226.953617756891	2362.236613963107	-2170.789342141991	1150.945556901378	2488.282077182214	-2316.731257899477	799.235393035572	2339.511429689578	-2320.825079898979	816.1903972247592	2596.711750980977	-2502.596756518989	896.792213494667	2418.421758052676	-2507.130840396196	898.7600424154863	2515.581056882393	-2388.602512460561	796.0232263841275	2261.048026889559	-2424.905337004398	811.1189748187297	2675.488399490526	-2359.550948127586	583.6511312163969	2253.740874408046	-2203.037073900282	606.9385435180654	2306.798552699242	-2340.330965885124	478.3841925298392	2313.24313205671	-2217.960683474616	427.8665187222837	2242.520126327259	-2213.928777905213	414.7970267753558	2368.485197524037	-2291.543303818746	342.4438094062491	2216.082711364229	-2264.694883747266	201.41614181604	2241.463910881471	-2353.256553602648	251.8509384036905	2284.511734795934	-2349.128252542565	95.05551539796527	2215.002920488052	-2326.122779173067	100.6859414642928	2299.39226995584	-2207.090659620322	62.26077003193247	2271.715675887574	-2246.92217127922	54.5180177663962	2190.020037323107	-2418.458943258854	68.14840358632441	2260.865418292786	-2201.090294250198	572.6399194916953	2587.325678558264	-2333.242780914962	628.5321878070037	2691.808760538838	-2345.105755693898	541.3214508185553	2676.606785301777	-2230.86889647058	445.1073399694765	2697.208272039508	-2239.956209632542	404.4479111979434	2574.383736800849	-2260.616620279543	192.7448816451114	2683.279919801634	-2362.653115464369	220.4258625956942	2674.68523658264	-2304.847743761212	280.4259752746567	2733.368181060081	-2350.354938111629	92.92042049100063	2731.442875928647	-2329.75526598864	92.05608082796029	2647.541404945004	-2203.866347312822	64.83680101953973	2687.800700960872	-2239.04972006312	52.61025077424316	2763.810868313053	-2412.940961905576	63.86277388154232	2677.50818854213	
41	21.855	-2271.441299292341	1261.884500444076	2493.984003058312	-2199.24588322284	1221.92668178836	2362.367694731645	-2170.472938582961	1145.795924801089	2488.299851853489	-2318.347777841817	795.4805434599734	2339.62033396923	-2322.143116314551	812.7115119065867	2596.960169096456	-2504.009920697386	893.3008443412213	2418.44121852826	-2508.493637009699	895.2955876692863	2515.64160258534	-2390.120677326811	792.6333636713726	2261.026229332749	-2426.45502149799	807.9564999137766	2675.721437731206	-2359.450669889186	580.9638074604313	2254.009660462877	-2203.029293947175	606.0823377202445	2306.842063852184	-2338.960082597854	476.0931773417861	2313.476185709159	-2216.177476009043	426.9798703832363	2242.544325045104	-2212.082072437852	413.9028127893029	2368.503883660313	-2290.170133807481	342.0008484968418	2216.264452661726	-2264.070382612265	200.930521829319	2241.476840868816	-2352.254022383003	251.6810069867047	2284.715822714737	-2349.043069330623	95.05065761050039	2215.062862601952	-2326.070070277908	100.5978056715501	2299.419332298289	-2207.114475028703	62.2816505631764	2271.678457414916	-2246.949500798929	54.50164832095055	2190.020577686731	-2418.450019543739	68.15173339925325	2260.886258601171	-2200.495014074309	572.0129070494181	2587.463267131135	-2333.395314385304	626.2621467273647	2691.902927642782	-2344.247052105479	539.0536507083082	2676.703713846794	-2229.052138370955	444.2490812718261	2697.311434079754	-2237.874504690145	403.6783730049676	2574.52541472566	-2259.932024227657	192.2412695712127	2683.33170155074	-2361.810580151257	220.4533536141271	2674.553903651642	-2303.731105575674	280.1341403783589	2733.346573409012	-2350.257895160663	92.9370158130931	2731.394491214469	-2329.694248963942	92.04736367275683	2647.509399916191	-2203.857361579901	64.87537288879795	2687.817793881522	-2239.065712944935	52.62930133441017	2763.827559680607	-2412.915684792705	63.87151905700421	2677.485374087405	
42	21.86	-2270.769130122113	1257.183863076623	2493.97913121723	-2198.463937006387	1216.842091706555	2362.493133233664	-2170.166839378417	1140.597300035138	2488.30968474628	-2319.936644257238	791.696643821244	2339.742620134933	-2323.449633774636	809.1783712923125	2597.201696895	-2505.401416842531	889.751950785142	2418.462925142167	-2509.837117552724	891.7625293676417	2515.704305809104	-2391.610737692417	789.2056390068456	2261.013981421133	-2427.982212964603	804.7317197622639	2675.960350002477	-2359.341403074271	578.254818956994	2254.28231376657	-2203.037195530556	605.2045860348439	2306.890012232076	-2337.585051560419	473.7908435370273	2313.711095483266	-2214.404988236808	426.090155644212	2242.575026824925	-2210.237072015505	413.0026698249957	2368.528933643986	-2288.807855176108	341.5577292422741	2216.453190638201	-2263.449115005533	200.4476548414421	2241.485016318394	-2351.252457428719	251.5060570038434	2284.933045279938	-2348.954616923049	95.04675999846815	2215.124887826036	-2326.012960081098	100.5071169338275	2299.452394909511	-2207.135340499228	62.29842781709859	2271.641235454999	-2246.973148488963	54.48921621464742	2190.021086595189	-2418.440062061753	68.15580471985946	2260.9071473006	-2199.910117624824	571.3573930868916	2587.603763739145	-2333.550401538929	623.9401301109406	2691.997597681228	-2343.393087079196	536.7544708367712	2676.791055144909	-2227.243237836745	443.3768435593242	2697.408997504117	-2235.8008190366	402.8972356797147	2574.659081598219	-2259.247089785635	191.733364517366	2683.37764761458	-2360.964442431389	220.4758282132874	2674.419259330136	-2302.611817573435	279.8350874434834	2733.319790499655	-2350.154334955099	92.95357401557882	2731.342009490277	-2329.629147974955	92.03588874060559	2647.475669669709	-2203.847250554765	64.90658929453376	2687.834235796447	-2239.079976479938	52.64315079361883	2763.846262498135	-2412.888084373547	63.88299673421098	2677.460147914676	
43	21.865	-2270.119005037159	1252.417694773627	2493.97241761339	-2197.703203760568	1211.70291316203	2362.612959055974	-2169.871248973829	1135.352692644548	2488.311750379214	-2321.496467914852	787.8847237586361	2339.877033075336	-2324.745243113922	805.591108076434	2597.433453891258	-2506.770747959743	886.147786831844	2418.48764970507	-2511.160477462001	888.1640648113136	2515.769494414832	-2393.07236606529	785.743598225974	2261.011468410231	-2429.485541010251	801.4474351823237	2676.20538901654	-2359.220093567495	575.5273672603653	2254.554937133628	-2203.059232331397	604.3057296452155	2306.944701741564	-2336.205957171628	471.4785465095458	2313.944034819139	-2212.642688037356	425.197777798324	2242.611095345248	-2208.396260161106	412.0959378767984	2368.559169405874	-2287.455643878906	341.1143257356152	2216.646600080728	-2262.830871263805	199.967507153051	2241.488739107728	-2350.252471584072	251.3266438560987	2285.161118163812	-2348.862895787186	95.04365417501934	2215.188718068778	-2325.951475621325	100.4144305076173	2299.491635244791	-2207.153271666604	62.31116875034454	2271.604282448641	-2246.993227417476	54.48063614321803	2190.021347689381	-2418.429086412902	68.16050807531384	2260.927957577816	-2199.336778749195	570.6740530880629	2587.746157218274	-2333.706083542672	621.5688621871933	2692.093262116884	-2342.542520013471	534.4257405865392	2676.870852958879	-2225.441755858033	442.4925567263949	2697.50270104752	-2233.735102829947	402.1047052235935	2574.785586443477	-2258.561988612179	191.2221793280339	2683.418726427381	-2360.114870605118	220.4937994249744	2674.282196739569	-2301.490186247013	279.5292921183936	2733.288838225902	-2350.044236937014	92.97000372335023	2731.285474142759	-2329.56006406029	92.02166196496833	2647.440442429751	-2203.836162703785	64.93005106634286	2687.85005308665	-2239.092307610121	52.65173356013341	2763.866949649128	-2412.858193316411	63.89715118528141	2677.432415824803	
